<svg width="20" height="45" viewBox="0 0 20 45" fill="none" xmlns="http://www.w3.org/2000/svg">
<path d="M16 34C18.2091 34 20 32.2091 20 30C20 27.7909 18.2091 26 16 26C13.7909 26 12 27.7909 12 30C12 32.2091 13.7909 34 16 34Z" fill="black"/>
<path d="M17 2.81174C17 3.24497 16.9345 3.69174 16.7948 4.10466L10.1797 23.5729C8.55103 28.3723 7.69521 33.7132 7.69521 39.1353V41.9175C7.69521 43.3864 7.00532 44.7199 6.05782 44.8486C4.98805 44.9975 4.08421 43.6843 4.08421 42.0664V41.5046L3.40305 43.5083C2.94021 44.8689 1.84424 45.3969 0.962233 44.6793C0.0845875 43.9618 -0.255991 42.2627 0.206846 40.9021L1.57353 36.888C3.22403 32.0344 4.08421 26.6326 4.08421 21.1428V3.06897C4.08421 1.43759 4.94875 0.00252069 5.99669 0.0972897C6.45079 0.137905 6.86123 0.44252 7.16688 0.909595C7.48999 1.41729 7.69521 2.12128 7.69521 2.88621V18.7735C7.69521 18.7735 7.71705 18.8074 7.72578 18.7871L13.6029 1.49175C14.0658 0.131136 15.1617 -0.396863 16.0394 0.320674C16.6507 0.821595 17 1.80313 17 2.81174Z" fill="black"/>
<path d="M16 34C18.2091 34 20 32.2091 20 30C20 27.7909 18.2091 26 16 26C13.7909 26 12 27.7909 12 30C12 32.2091 13.7909 34 16 34Z" fill="black"/>
<path d="M17 2.81174C17 3.24497 16.9345 3.69174 16.7948 4.10466L10.1797 23.5729C8.55103 28.3723 7.69521 33.7132 7.69521 39.1353V41.9175C7.69521 43.3864 7.00532 44.7199 6.05782 44.8486C4.98805 44.9975 4.08421 43.6843 4.08421 42.0664V41.5046L3.40305 43.5083C2.94021 44.8689 1.84424 45.3969 0.962233 44.6793C0.0845875 43.9618 -0.255991 42.2627 0.206846 40.9021L1.57353 36.888C3.22403 32.0344 4.08421 26.6326 4.08421 21.1428V3.06897C4.08421 1.43759 4.94875 0.00252069 5.99669 0.0972897C6.45079 0.137905 6.86123 0.44252 7.16688 0.909595C7.48999 1.41729 7.69521 2.12128 7.69521 2.88621V18.7735C7.69521 18.7735 7.71705 18.8074 7.72578 18.7871L13.6029 1.49175C14.0658 0.131136 15.1617 -0.396863 16.0394 0.320674C16.6507 0.821595 17 1.80313 17 2.81174Z" fill="black"/>
</svg>
