<svg width="140" height="140" viewBox="0 0 140 140" fill="none" xmlns="http://www.w3.org/2000/svg">
<path d="M37.954 108.377C45.9771 115.068 55.8947 119.078 66.3138 119.844C76.7328 120.609 87.13 118.092 96.0451 112.646C104.96 107.199 111.945 99.0968 116.019 89.4768C120.094 79.8568 121.052 69.2022 118.76 59.0095C116.468 48.8168 111.041 39.598 103.242 32.6479C95.4416 25.6977 85.6606 21.3653 75.2722 20.2592C64.8837 19.153 54.4097 21.3287 45.3212 26.4806C36.2327 31.6325 28.9862 39.5019 24.5995 48.9834L34.8621 53.7315C38.2567 46.3942 43.8643 40.3045 50.8975 36.3177C57.9306 32.331 66.0358 30.6473 74.0749 31.5033C82.114 32.3593 89.683 35.7119 95.7189 41.0903C101.755 46.4686 105.954 53.6026 107.728 61.4901C109.501 69.3777 108.76 77.6227 105.607 85.0671C102.454 92.5115 97.0489 98.7814 90.15 102.996C83.2511 107.211 75.2052 109.159 67.1425 108.566C59.0797 107.974 51.4051 104.871 45.1964 99.6927L37.954 108.377Z" fill="#D9D9D9"/>
<path d="M87.1421 23.0165C77.3298 19.4302 66.6405 19.0076 56.5757 21.8079C46.5108 24.6083 37.5759 30.491 31.0259 38.6298C24.4759 46.7687 20.6397 56.7548 20.0562 67.1856C19.4728 77.6165 22.1712 87.9681 27.7727 96.7867C33.3742 105.605 41.5972 112.448 51.2869 116.353C60.9767 120.259 71.6464 121.031 81.7975 118.561C91.9486 116.092 101.071 110.504 107.884 102.584C114.697 94.6641 118.858 84.8089 119.782 74.4027L108.519 73.4021C107.803 81.4548 104.583 89.0813 99.3114 95.2103C94.0393 101.339 86.9799 105.663 79.1245 107.574C71.2691 109.485 63.0124 108.887 55.514 105.865C48.0157 102.843 41.6523 97.548 37.3176 90.7238C32.983 83.8996 30.8948 75.8891 31.3463 67.8172C31.7978 59.7453 34.7664 52.0176 39.8351 45.7194C44.9038 39.4212 51.8181 34.8689 59.6067 32.7018C67.3954 30.5348 75.6672 30.8618 83.2604 33.6371L87.1421 23.0165Z" fill="#05A301"/>
<path d="M54.2921 77.1771C53.2741 77.1771 52.3745 77.0019 51.5932 76.6516C50.8167 76.3012 50.2083 75.8182 49.7679 75.2027C49.3276 74.5872 49.1098 73.8864 49.1145 73.1004C49.1098 72.4849 49.2353 71.9191 49.4909 71.403C49.7514 70.8822 50.1041 70.4489 50.5492 70.1033C50.9942 69.7529 51.4914 69.5304 52.0406 69.4357V69.3504C51.3162 69.1752 50.7362 68.787 50.3006 68.1857C49.865 67.5843 49.6496 66.893 49.6543 66.1118C49.6496 65.3684 49.846 64.7055 50.2438 64.1232C50.6462 63.536 51.1978 63.0744 51.8986 62.7382C52.5994 62.402 53.3972 62.234 54.2921 62.234C55.1775 62.234 55.9682 62.4044 56.6642 62.7453C57.365 63.0815 57.9166 63.5431 58.3191 64.1303C58.7215 64.7126 58.9251 65.3732 58.9299 66.1118C58.9251 66.893 58.7026 67.5843 58.2622 68.1857C57.8219 68.787 57.249 69.1752 56.5435 69.3504V69.4357C57.088 69.5304 57.5781 69.7529 58.0137 70.1033C58.454 70.4489 58.8044 70.8822 59.0648 71.403C59.3299 71.9191 59.4649 72.4849 59.4696 73.1004C59.4649 73.8864 59.2424 74.5872 58.802 75.2027C58.3617 75.8182 57.7509 76.3012 56.9696 76.6516C56.1931 77.0019 55.3006 77.1771 54.2921 77.1771ZM54.2921 75.3803C54.8934 75.3803 55.4142 75.2808 55.8546 75.082C56.2949 74.8784 56.6358 74.5966 56.8773 74.2368C57.1188 73.8722 57.2419 73.4461 57.2466 72.9584C57.2419 72.4518 57.1093 72.0043 56.8489 71.6161C56.5932 71.2278 56.2452 70.9224 55.8049 70.6999C55.3645 70.4773 54.8603 70.3661 54.2921 70.3661C53.7192 70.3661 53.2102 70.4773 52.7651 70.6999C52.32 70.9224 51.9696 71.2278 51.7139 71.6161C51.4583 72.0043 51.3328 72.4518 51.3375 72.9584C51.3328 73.4461 51.4488 73.8722 51.6855 74.2368C51.927 74.5966 52.2703 74.8784 52.7154 75.082C53.1604 75.2808 53.686 75.3803 54.2921 75.3803ZM54.2921 68.6118C54.775 68.6118 55.2035 68.5147 55.5776 68.3206C55.9516 68.1265 56.2452 67.8566 56.4583 67.5109C56.6761 67.1653 56.7873 66.7605 56.7921 66.2965C56.7873 65.8419 56.6784 65.4442 56.4654 65.1033C56.257 64.7624 55.9658 64.4996 55.5918 64.3149C55.2177 64.1255 54.7845 64.0308 54.2921 64.0308C53.7902 64.0308 53.3498 64.1255 52.971 64.3149C52.597 64.4996 52.3058 64.7624 52.0975 65.1033C51.8891 65.4442 51.7873 65.8419 51.7921 66.2965C51.7873 66.7605 51.8915 67.1653 52.1046 67.5109C52.3176 67.8566 52.6112 68.1265 52.9853 68.3206C53.364 68.5147 53.7996 68.6118 54.2921 68.6118ZM61.7086 74.1374V72.3618L67.9941 62.4328H69.3933V65.0465H68.5055L64.0098 72.1629V72.2766H72.6248V74.1374H61.7086ZM68.6049 76.9783V73.5976L68.6191 72.7879V62.4328H70.7001V76.9783H68.6049ZM82.6923 74.251V73.484C82.6923 72.9347 82.8059 72.4328 83.0332 71.9783C83.2652 71.519 83.6014 71.152 84.0417 70.8774C84.4868 70.5981 85.0242 70.4584 85.6539 70.4584C86.2979 70.4584 86.8376 70.5957 87.2732 70.8703C87.7089 71.1449 88.0379 71.5119 88.2605 71.9712C88.4877 72.4304 88.6014 72.9347 88.6014 73.484V74.251C88.6014 74.8002 88.4877 75.3045 88.2605 75.7638C88.0332 76.2183 87.6994 76.5853 87.259 76.8646C86.8234 77.1393 86.2884 77.2766 85.6539 77.2766C85.0147 77.2766 84.475 77.1393 84.0346 76.8646C83.5943 76.5853 83.2605 76.2183 83.0332 75.7638C82.8059 75.3045 82.6923 74.8002 82.6923 74.251ZM84.3471 73.484V74.251C84.3471 74.6582 84.4442 75.0275 84.6383 75.359C84.8324 75.6904 85.171 75.8561 85.6539 75.8561C86.1322 75.8561 86.466 75.6904 86.6554 75.359C86.8447 75.0275 86.9394 74.6582 86.9394 74.251V73.484C86.9394 73.0768 86.8471 72.7074 86.6625 72.376C86.4825 72.0446 86.1464 71.8788 85.6539 71.8788C85.1804 71.8788 84.8443 72.0446 84.6454 72.376C84.4465 72.7074 84.3471 73.0768 84.3471 73.484ZM75.3769 65.9271V65.1601C75.3769 64.6108 75.4906 64.1066 75.7179 63.6473C75.9499 63.188 76.286 62.8211 76.7264 62.5465C77.1714 62.2718 77.7089 62.1345 78.3386 62.1345C78.9825 62.1345 79.5223 62.2718 79.9579 62.5465C80.3935 62.8211 80.7226 63.188 80.9451 63.6473C81.1677 64.1066 81.2789 64.6108 81.2789 65.1601V65.9271C81.2789 66.4764 81.1653 66.9806 80.938 67.4399C80.7155 67.8945 80.384 68.2614 79.9437 68.5408C79.5081 68.8154 78.9731 68.9527 78.3386 68.9527C77.6947 68.9527 77.1525 68.8154 76.7122 68.5408C76.2766 68.2614 75.9451 67.8945 75.7179 67.4399C75.4906 66.9806 75.3769 66.4764 75.3769 65.9271ZM77.0389 65.1601V65.9271C77.0389 66.3343 77.1336 66.7037 77.323 67.0351C77.5171 67.3665 77.8556 67.5322 78.3386 67.5322C78.8121 67.5322 79.1435 67.3665 79.3329 67.0351C79.527 66.7037 79.6241 66.3343 79.6241 65.9271V65.1601C79.6241 64.7529 79.5318 64.3836 79.3471 64.0521C79.1625 63.7207 78.8263 63.555 78.3386 63.555C77.8651 63.555 77.5289 63.7207 77.3301 64.0521C77.1359 64.3836 77.0389 64.7529 77.0389 65.1601ZM76.0517 76.9783L86.0517 62.4328H87.7491L77.7491 76.9783H76.0517Z" fill="black"/>
</svg>
