<svg width="15" height="15" viewBox="0 0 15 15" fill="none" xmlns="http://www.w3.org/2000/svg">
<path d="M13.3278 2.09458L9.92478 2.09459V1.24737C9.92478 1.0125 9.7346 0.822266 9.49978 0.822266C9.26497 0.822266 9.07478 1.0125 9.07478 1.24737V2.09438H5.67478V1.24737C5.67478 1.0125 5.4846 0.822266 5.24978 0.822266C5.01497 0.822266 4.82478 1.0125 4.82478 1.24737V2.09438H1.42776C0.958346 2.09438 0.577759 2.47505 0.577759 2.94458V13.5721C0.577759 14.0416 0.958346 14.4223 1.42776 14.4223H13.3278C13.7972 14.4223 14.1778 14.0416 14.1778 13.5721V2.94458C14.1778 2.47525 13.7972 2.09458 13.3278 2.09458ZM13.3278 13.5721H1.42776V2.94458H4.82478V3.37286C4.82478 3.60772 5.01497 3.79796 5.24978 3.79796C5.4846 3.79796 5.67478 3.60772 5.67478 3.37286V2.94479H9.07478V3.37308C9.07478 3.60794 9.26497 3.79818 9.49978 3.79818C9.7346 3.79818 9.92478 3.60794 9.92478 3.37308V2.94479H13.3278V13.5721ZM10.3528 7.62087H11.2028C11.4374 7.62087 11.6278 7.43043 11.6278 7.19577V6.34557C11.6278 6.11092 11.4374 5.92047 11.2028 5.92047H10.3528C10.1182 5.92047 9.92776 6.11092 9.92776 6.34557V7.19577C9.92776 7.43043 10.1182 7.62087 10.3528 7.62087ZM10.3528 11.0215H11.2028C11.4374 11.0215 11.6278 10.8312 11.6278 10.5964V9.74616C11.6278 9.5115 11.4374 9.32106 11.2028 9.32106H10.3528C10.1182 9.32106 9.92776 9.5115 9.92776 9.74616V10.5964C9.92776 10.8314 10.1182 11.0215 10.3528 11.0215ZM7.80276 9.32106H6.95276C6.71816 9.32106 6.52776 9.5115 6.52776 9.74616V10.5964C6.52776 10.8312 6.71816 11.0215 6.95276 11.0215H7.80276C8.03736 11.0215 8.22776 10.8312 8.22776 10.5964V9.74616C8.22776 9.51171 8.03736 9.32106 7.80276 9.32106ZM7.80276 5.92047H6.95276C6.71816 5.92047 6.52776 6.11092 6.52776 6.34557V7.19577C6.52776 7.43043 6.71816 7.62087 6.95276 7.62087H7.80276C8.03736 7.62087 8.22776 7.43043 8.22776 7.19577V6.34557C8.22776 6.1107 8.03736 5.92047 7.80276 5.92047ZM4.40276 5.92047H3.55276C3.31816 5.92047 3.12776 6.11092 3.12776 6.34557V7.19577C3.12776 7.43043 3.31816 7.62087 3.55276 7.62087H4.40276C4.63736 7.62087 4.82776 7.43043 4.82776 7.19577V6.34557C4.82776 6.1107 4.63736 5.92047 4.40276 5.92047ZM4.40276 9.32106H3.55276C3.31816 9.32106 3.12776 9.5115 3.12776 9.74616V10.5964C3.12776 10.8312 3.31816 11.0215 3.55276 11.0215H4.40276C4.63736 11.0215 4.82776 10.8312 4.82776 10.5964V9.74616C4.82776 9.51171 4.63736 9.32106 4.40276 9.32106Z" fill="#F8F8FB"/>
</svg>
